<?xml version="1.0" standalone="no"?>
<!DOCTYPE svg PUBLIC "-//W3C//DTD SVG 20010904//EN"
 "http://www.w3.org/TR/2001/REC-SVG-20010904/DTD/svg10.dtd">
<svg version="1.0" xmlns="http://www.w3.org/2000/svg"
 width="1430.000000pt" height="1080.000000pt" viewBox="0 0 1430.000000 1080.000000"
 preserveAspectRatio="xMidYMid meet">

<g transform="translate(0.000000,1080.000000) scale(0.100000,-0.100000)"
fill="#000000" stroke="none">
<path d="M10421 6439 c-222 -277 -232 -293 -220 -316 10 -19 15 -21 24 -11 27
29 419 522 440 554 24 35 24 64 1 64 -7 0 -117 -131 -245 -291z"/>
<path d="M6230 6616 c-123 -26 -210 -118 -254 -265 -23 -78 -20 -83 15 -21 40
73 92 125 159 158 49 24 67 27 155 27 81 0 109 -4 147 -22 67 -31 133 -96 168
-166 33 -67 36 -66 16 8 -43 164 -134 260 -270 284 -69 13 -65 13 -136 -3z"/>
<path d="M3895 6326 c5 -77 9 -92 29 -107 33 -26 56 -84 241 -594 91 -252 172
-470 181 -483 21 -32 60 -44 127 -40 45 3 63 10 81 29 16 16 82 184 201 513
97 269 185 505 195 525 10 20 30 46 44 58 24 21 26 29 26 105 l-1 83 -180
-495 c-98 -272 -198 -546 -220 -607 l-41 -113 -123 0 -122 0 -208 578 c-115
317 -215 591 -222 607 -13 27 -13 21 -8 -59z"/>
<path d="M7703 6185 c-40 -18 -60 -36 -83 -72 -32 -50 -64 -142 -54 -152 4 -3
9 0 12 8 11 31 80 95 121 114 98 43 237 10 294 -70 l26 -37 -6 40 c-23 159
-166 237 -310 169z"/>
<path d="M9020 6141 c-88 -27 -140 -81 -140 -146 l0 -44 25 25 c41 41 111 66
203 73 92 7 112 20 112 73 l0 28 -87 -1 c-49 0 -99 -4 -113 -8z"/>
<path d="M9856 5777 c-79 -87 -86 -98 -86 -136 l0 -42 68 71 c73 76 108 88
150 53 12 -10 101 -144 200 -297 98 -154 190 -289 206 -300 23 -18 45 -21 144
-24 133 -4 172 5 172 41 0 52 -13 56 -180 59 l-154 3 -208 324 c-114 178 -211
328 -216 333 -5 5 -44 -29 -96 -85z"/>
<path d="M7560 5712 c0 -5 7 -28 15 -53 l15 -44 341 3 c230 2 349 6 363 14 13
7 16 13 8 16 -6 2 -12 10 -12 17 0 14 -29 29 -38 20 -3 -3 3 -12 14 -20 12 -9
14 -14 6 -15 -20 0 -39 23 -34 40 4 12 2 13 -9 3 -17 -13 -45 -1 -35 15 4 7
-99 11 -314 11 -176 1 -320 -2 -320 -7z m610 -12 c0 -5 -4 -10 -10 -10 -5 0
-10 5 -10 10 0 6 5 10 10 10 6 0 10 -4 10 -10z"/>
<path d="M5645 5610 c4 -19 21 -67 37 -107 108 -263 318 -407 608 -419 63 -3
129 -7 146 -10 19 -3 81 -45 175 -119 79 -63 154 -118 167 -121 27 -7 85 30
137 88 39 43 40 47 21 73 -13 18 -17 16 -78 -38 l-65 -57 -177 142 -176 142
-132 2 c-148 1 -211 15 -323 68 -134 63 -230 161 -306 311 -30 58 -39 70 -34
45z"/>
<path d="M6919 5540 c-23 -46 -68 -109 -105 -149 l-63 -68 20 -19 c21 -19 22
-19 54 19 42 48 108 174 128 245 9 28 14 52 12 52 -2 0 -23 -36 -46 -80z"/>
<path d="M7250 5534 c0 -17 35 -115 58 -160 134 -263 519 -372 810 -229 116
58 171 120 143 164 -7 11 -15 9 -42 -12 -103 -77 -220 -111 -384 -111 -136 0
-209 15 -314 66 -84 41 -197 150 -239 233 -17 33 -31 55 -32 49z"/>
<path d="M3594 5168 c11 -54 27 -63 127 -67 132 -5 169 10 169 70 l0 29 -151
0 -151 0 6 -32z"/>
<path d="M5020 5176 c0 -13 9 -34 19 -47 18 -23 26 -24 131 -24 105 0 113 1
131 24 10 13 19 34 19 47 l0 24 -150 0 -150 0 0 -24z"/>
<path d="M8560 5176 c0 -13 9 -34 19 -47 18 -23 26 -24 126 -24 100 0 108 1
126 24 10 13 19 34 19 47 l0 24 -145 0 -145 0 0 -24z"/>
<path d="M9444 5168 c11 -54 27 -63 127 -67 132 -5 169 10 169 70 l0 29 -151
0 -151 0 6 -32z"/>
</g>
</svg>
